<svg width="113" height="41" viewBox="0 0 113 41" fill="none" xmlns="http://www.w3.org/2000/svg">
<g clip-path="url(#clip0_1028_2510)">
<path d="M2.8848 15.9041L2.96419 18.0489V28.6655H0V8.93359H0.370525L11.8038 21.8558L11.698 19.6038V8.96041H14.6622V28.6655H14.2652L2.8848 15.9041Z" fill="#2F2E41"/>
<path d="M22.8127 28.9336C21.1365 28.9336 19.9808 28.4331 19.3456 27.4323C18.7281 26.4314 18.4193 25.0373 18.4193 23.2499V16.3599H21.2776V22.5261C21.2776 23.5449 21.3306 24.3402 21.4364 24.9121C21.56 25.4662 21.7893 25.8773 22.1246 26.1454C22.4774 26.4135 22.9979 26.5475 23.6861 26.5475C24.1801 26.5475 24.6565 26.4046 25.1152 26.1186C25.574 25.8326 25.9445 25.4483 26.2268 24.9658C26.5267 24.4653 26.6767 23.9202 26.6767 23.3304V16.3599H29.5086V28.6655H27.1796L26.862 26.8693C26.4209 27.5663 25.8651 28.0846 25.1946 28.4242C24.5418 28.7638 23.7478 28.9336 22.8127 28.9336Z" fill="#2F2E41"/>
<path d="M33.3108 16.3599H36.1691V18.5851C36.5573 17.745 37.1219 17.1105 37.8629 16.6816C38.6216 16.2526 39.4862 16.0382 40.4566 16.0382C42.6268 16.056 43.959 16.8156 44.453 18.317C44.8412 17.6199 45.4234 17.0659 46.1997 16.6548C46.9761 16.2437 47.7965 16.0382 48.6611 16.0382C49.9315 16.0382 50.8931 16.2884 51.5459 16.7888C52.1987 17.2714 52.631 17.9684 52.8427 18.88C53.0721 19.7736 53.1868 20.9801 53.1868 22.4993V28.6655H50.302V22.4725C50.302 21.0247 50.152 19.9881 49.8521 19.3626C49.5698 18.737 49.014 18.4242 48.1847 18.4242C47.0731 18.4242 46.2262 18.8085 45.644 19.577C45.0794 20.3277 44.797 21.3197 44.797 22.5529V28.6655H41.9387V22.0435C41.9387 21.0962 41.9034 20.3903 41.8328 19.9256C41.7623 19.4609 41.5682 19.0945 41.2506 18.8264C40.933 18.5583 40.4213 18.4242 39.7156 18.4242C39.098 18.4242 38.5158 18.6119 37.9688 18.9872C37.4395 19.3626 37.0072 19.8719 36.672 20.5154C36.3544 21.1409 36.1956 21.8201 36.1956 22.5529V28.6655H33.3108V16.3599Z" fill="#2F2E41"/>
<path d="M62.5735 28.9336C61.1267 28.9336 59.9181 28.6476 58.9477 28.0757C57.9773 27.4859 57.2627 26.7084 56.8039 25.7432C56.3452 24.7602 56.1158 23.6878 56.1158 22.5261C56.1158 21.2214 56.3805 20.0775 56.9098 19.0945C57.4568 18.1114 58.2066 17.3608 59.1594 16.8424C60.1122 16.3062 61.1885 16.0382 62.3883 16.0382C64.2585 16.0382 65.6436 16.5654 66.5434 17.6199C67.4609 18.6566 67.9197 20.1222 67.9197 22.0167C67.9197 22.4993 67.8932 22.9997 67.8403 23.518H59.1065C59.3006 24.6083 59.6799 25.3947 60.2445 25.8773C60.8268 26.3599 61.6296 26.6012 62.6529 26.6012C63.4998 26.6012 64.1968 26.5297 64.7437 26.3867C65.2907 26.2437 65.7936 26.0471 66.2523 25.7969L67.1257 27.8612C66.6846 28.1472 66.0847 28.3974 65.326 28.6119C64.5673 28.8264 63.6498 28.9336 62.5735 28.9336ZM65.1407 21.5073C65.1584 20.3992 64.9202 19.6217 64.4262 19.1749C63.9321 18.7102 63.2264 18.4778 62.3089 18.4778C60.4562 18.4778 59.3888 19.4877 59.1065 21.5073H65.1407Z" fill="#2F2E41"/>
<path d="M70.8369 16.3599H73.6953V18.7727C73.9776 17.9506 74.4363 17.2893 75.0715 16.7888C75.7067 16.2884 76.4301 16.0382 77.2417 16.0382C77.8063 16.0382 78.1945 16.0918 78.4062 16.199L78.0092 19.1213C77.8504 19.014 77.5064 18.9604 76.977 18.9604C76.1478 18.9604 75.3891 19.2285 74.701 19.7647C74.0305 20.3009 73.6953 21.1588 73.6953 22.3384V28.6655H70.8369V16.3599Z" fill="#2F2E41"/>
<path d="M80.6393 16.3599H83.6035V28.6655H80.6393V16.3599Z" fill="#2F2E41"/>
<path d="M92.9336 28.9336C91.8396 28.9336 90.8251 28.6744 89.89 28.1561C88.9725 27.6199 88.2314 26.8693 87.6668 25.9041C87.1199 24.9211 86.8464 23.7772 86.8464 22.4725C86.8464 21.1856 87.0846 20.0596 87.561 19.0945C88.055 18.1293 88.7519 17.3786 89.6518 16.8424C90.5516 16.3062 91.6103 16.0382 92.8277 16.0382C93.5335 16.0382 94.1951 16.1633 94.8127 16.4135C95.4302 16.6637 95.9507 16.9765 96.3741 17.3518C96.7976 17.7093 97.0799 18.0668 97.2211 18.4242L97.274 16.3599H100V28.6655H97.3005L97.2475 26.4939C96.9476 27.1373 96.4006 27.7093 95.6066 28.2097C94.8127 28.6923 93.9216 28.9336 92.9336 28.9336ZM93.41 26.5207C94.4157 26.5207 95.2626 26.1722 95.9507 25.4751C96.6388 24.7602 96.9829 23.8308 96.9829 22.6869V22.4993C96.9829 21.7307 96.8241 21.0426 96.5065 20.4349C96.1889 19.8272 95.7566 19.3536 95.2096 19.014C94.6627 18.6744 94.0628 18.5046 93.41 18.5046C92.2807 18.5046 91.4074 18.88 90.7898 19.6306C90.1723 20.3634 89.8635 21.3197 89.8635 22.4993C89.8635 23.6968 90.1635 24.6709 90.7634 25.4215C91.3809 26.1543 92.2631 26.5207 93.41 26.5207Z" fill="#2F2E41"/>
<path d="M80.5793 13.2578C80.9655 13.6549 81.4437 13.8535 82.0138 13.8535C82.5839 13.8535 83.0529 13.6549 83.4207 13.2578C83.8069 12.8606 84 12.3689 84 11.7826C84 11.253 83.8069 10.7991 83.4207 10.4209C83.0345 10.0426 82.5655 9.85352 82.0138 9.85352C81.4437 9.85352 80.9655 10.0426 80.5793 10.4209C80.1931 10.7991 80 11.253 80 11.7826C80 12.3689 80.1931 12.8606 80.5793 13.2578Z" fill="url(#paint0_radial_1028_2510)"/>
<path fill-rule="evenodd" clip-rule="evenodd" d="M77.1298 29.9438C71.948 21.5816 74.5751 10.5305 82.9123 5.36408C91.2496 0.197675 102.315 2.76389 107.497 11.1261C112.679 19.4883 110.052 30.5395 101.714 35.7059C93.3771 40.8723 82.3117 38.3061 77.1298 29.9438ZM102.848 37.5355C93.5238 43.3136 81.1311 40.4589 75.3128 31.0698C69.4946 21.6807 72.4542 9.31255 81.7785 3.53446C91.1029 -2.24363 103.496 0.611036 109.314 10.0002C115.132 19.3893 112.173 31.7574 102.848 37.5355Z" fill="url(#paint1_radial_1028_2510)"/>
<path fill-rule="evenodd" clip-rule="evenodd" d="M77.1298 29.9438C71.948 21.5816 74.5751 10.5305 82.9123 5.36408C91.2496 0.197675 102.315 2.76389 107.497 11.1261C112.679 19.4883 110.052 30.5395 101.714 35.7059C93.3771 40.8723 82.3117 38.3061 77.1298 29.9438ZM102.848 37.5355C93.5238 43.3136 81.1311 40.4589 75.3128 31.0698C69.4946 21.6807 72.4542 9.31255 81.7785 3.53446C91.1029 -2.24363 103.496 0.611036 109.314 10.0002C115.132 19.3893 112.173 31.7574 102.848 37.5355Z" fill="url(#paint2_radial_1028_2510)"/>
<path fill-rule="evenodd" clip-rule="evenodd" d="M77.1298 29.9438C71.948 21.5816 74.5751 10.5305 82.9123 5.36408C91.2496 0.197675 102.315 2.76389 107.497 11.1261C112.679 19.4883 110.052 30.5395 101.714 35.7059C93.3771 40.8723 82.3117 38.3061 77.1298 29.9438ZM102.848 37.5355C93.5238 43.3136 81.1311 40.4589 75.3128 31.0698C69.4946 21.6807 72.4542 9.31255 81.7785 3.53446C91.1029 -2.24363 103.496 0.611036 109.314 10.0002C115.132 19.3893 112.173 31.7574 102.848 37.5355Z" fill="url(#paint3_radial_1028_2510)" fill-opacity="0.5"/>
</g>
<defs>
<radialGradient id="paint0_radial_1028_2510" cx="0" cy="0" r="1" gradientUnits="userSpaceOnUse" gradientTransform="translate(82 11.8535) rotate(90.5654) scale(2.89663)">
<stop stop-color="#949EF8"/>
<stop offset="1" stop-color="#AAB2F9"/>
</radialGradient>
<radialGradient id="paint1_radial_1028_2510" cx="0" cy="0" r="1" gradientUnits="userSpaceOnUse" gradientTransform="translate(111.194 -9.45683) rotate(140.036) scale(35.6081 24.1446)">
<stop stop-color="#6C7AF5" stop-opacity="0.35"/>
<stop offset="0.0001" stop-color="#6C7AF5" stop-opacity="0.19"/>
<stop offset="1" stop-color="#6C7AF5" stop-opacity="0"/>
</radialGradient>
<radialGradient id="paint2_radial_1028_2510" cx="0" cy="0" r="1" gradientUnits="userSpaceOnUse" gradientTransform="translate(115.821 44.2019) rotate(-94.335) scale(36.6235 26.2281)">
<stop stop-color="#8BEDCA"/>
<stop offset="1" stop-color="#8BEDCA" stop-opacity="0"/>
</radialGradient>
<radialGradient id="paint3_radial_1028_2510" cx="0" cy="0" r="1" gradientUnits="userSpaceOnUse" gradientTransform="translate(117.24 15.124) rotate(-133.571) scale(33.3109 33.3303)">
<stop stop-color="#6C7AF5"/>
<stop offset="1" stop-color="#6C7AF5" stop-opacity="0"/>
</radialGradient>
<clipPath id="clip0_1028_2510">
<rect width="113" height="41" fill="white"/>
</clipPath>
</defs>
</svg>
